inDegrees=no
num_controls=7
num_derivatives=13
num_iterations=90
num_multipliers=7
num_parameters=0
num_slacks=7
num_states=26
objective=5.979326
objective_accelerations=0.370279
objective_balance=0.071423
objective_effort=0.418827
objective_height=5.096203
objective_ligament=0.022594
solver_duration=799.185112
status=Solve_Succeeded
success=true
DataType=double
version=3
OpenSimVersion=4.4-2022-07-23-0e9fedc
endheader
time	/jointset/ground_pelvis/pelvis_tilt/value	/jointset/ground_pelvis/pelvis_tx/value	/jointset/ground_pelvis/pelvis_ty/value	/jointset/hip_r/hip_flexion_r/value	/jointset/hip_r/hip_adduction_r/value	/jointset/hip_r/hip_rotation_r/value	/jointset/back/lumbar_extension/value	/jointset/patellofemoral_r/patellar_flexion_r/value	/jointset/knee_r/knee_flexion_r/value	/jointset/knee_r/knee_adduction_r/value	/jointset/knee_r/knee_rotation_r/value	/jointset/ankle_r/ankle_angle_r/value	/jointset/subtalar_r/subtalar_angle_r/value	/jointset/ground_pelvis/pelvis_tilt/speed	/jointset/ground_pelvis/pelvis_tx/speed	/jointset/ground_pelvis/pelvis_ty/speed	/jointset/hip_r/hip_flexion_r/speed	/jointset/hip_r/hip_adduction_r/speed	/jointset/hip_r/hip_rotation_r/speed	/jointset/back/lumbar_extension/speed	/jointset/patellofemoral_r/patellar_flexion_r/speed	/jointset/knee_r/knee_flexion_r/speed	/jointset/knee_r/knee_adduction_r/speed	/jointset/knee_r/knee_rotation_r/speed	/jointset/ankle_r/ankle_angle_r/speed	/jointset/subtalar_r/subtalar_angle_r/speed	/forceset/tau_hip_flexion_r	/forceset/tau_hip_adduction_r	/forceset/tau_hip_rotation_r	/forceset/tau_knee_flexion_r	/forceset/tau_ankle_angle_r	/forceset/tau_subtalar_angle_r	/forceset/tau_lumbar_extension	lambda_cid13_p0	lambda_cid14_p0	lambda_cid14_p1	lambda_cid14_p2	lambda_cid14_p3	lambda_cid14_p4	lambda_cid14_p5	/jointset/ground_pelvis/pelvis_tilt/accel	/jointset/ground_pelvis/pelvis_tx/accel	/jointset/ground_pelvis/pelvis_ty/accel	/jointset/hip_r/hip_flexion_r/accel	/jointset/hip_r/hip_adduction_r/accel	/jointset/hip_r/hip_rotation_r/accel	/jointset/back/lumbar_extension/accel	/jointset/patellofemoral_r/patellar_flexion_r/accel	/jointset/knee_r/knee_flexion_r/accel	/jointset/knee_r/knee_adduction_r/accel	/jointset/knee_r/knee_rotation_r/accel	/jointset/ankle_r/ankle_angle_r/accel	/jointset/subtalar_r/subtalar_angle_r/accel	gamma_cid13_p0	gamma_cid14_p0	gamma_cid14_p1	gamma_cid14_p2	gamma_cid14_p3	gamma_cid14_p4	gamma_cid14_p5
0.5	-0.09137111595622921	0.06527920691169964	0.8700206962112602	0.6522563790260454	-0.2336259038048764	-0.1327970073272637	-0.3087587128544614	0.6621887650400176	0.662188765040105	0.05516679112792738	0.1745263653361651	0.2700514014166866	0.05379071246750667	-0.2471334698107051	-0.07610923020894184	-0.2998526025802166	1.319095065695247	-0.007320054728991179	0.2605312318916046	-0.6102954347332451	1.594215807402258	1.594215807402256	-0.2612745336668352	-5.689634265846705e-05	0.6100659894001099	0.1624937564107907	-0.07049332832233557	-0.003465593925112793	0.007906227121024454	-0.3193722640784962	0.03176058685058847	-0.01617360877354004	0.1304431445441881	-33.44196526094319	-32.27908634863139	-9.102032069332989	-2.171286953722164	8.75074249350509	-671.3003363770637	50.24949570509841	0.02924089632970665	0.1526374295723459	-0.3257750394517754	-0.6860066687822823	-0.004349855211121925	-0.568535791086332	1.134921692759993	-1.106889159330499	-1.106889159330488	0.288211851704251	-0.01229826473344337	-0.5653553345582263	-0.02608231767698251	-1.24920254110462e-07	-1.252321612475258e-07	9.283378803573816e-07	-1.046731250368304e-06	-2.504640227561365e-08	-1.628440429023684e-07	1.041056387165543e-06
0.51	-0.09384070866670663	0.06452592175818216	0.867006547417117	0.6654109278666718	-0.2337000555779959	-0.1302199962122663	-0.3148038656489234	0.6780730631823065	0.6780730631823334	0.05257026800479409	0.1745258092597138	0.2761226912088782	0.05541302549429732	-0.2467555607575647	-0.07453239178186301	-0.3029069471107937	1.311619364426838	-0.007511576758910524	0.2548478310880394	-0.5986350490862019	1.582400655699342	1.58240065569934	-0.2580163150418647	-4.720550743196524e-05	0.6041072607323578	0.161940548446515	-0.07570249217934076	-0.001691288951473748	0.008375383071040503	-0.3218627664295697	0.02727043857197585	-0.01519782215566405	0.1352672808562406	-32.57267278173352	-33.8308179680086	-9.060398486726083	-2.051759599024999	9.254843893391996	-674.3239890077398	50.1781280376453	0.04648172069761404	0.1625143604629683	-0.284764915784743	-0.8076660725346292	-0.02684557722678086	-0.5718969556637964	1.196608261355693	-1.2552788367066	-1.255278836706617	0.3467599746161725	0.008496058552230824	-0.623856589856797	-0.07417020813156752	-1.167283526159976e-07	-1.250468837641888e-07	8.243024171993893e-07	-1.03881401388736e-06	-1.32891997772664e-08	-1.646482467262245e-07	9.741135891635328e-07
0.52	-0.09630563912448127	0.06378886645117247	0.8639639550264836	0.6784848568512769	-0.2337761810114956	-0.127700550051419	-0.320729412334782	0.6938319196753645	0.6938319196753644	0.05000675368927038	0.1745255287518367	0.2821318487229948	0.05702896040697956	-0.2462010192687681	-0.07286326090738109	-0.3055413218782916	1.302971094491837	-0.007714786802661323	0.2490182410575923	-0.5863742130119761	1.569127477559051	1.569127477559049	-0.2546727721480069	-1.782636147391577e-06	0.5976395337856862	0.1612181335890994	-0.08091165603631446	8.301602232360552e-05	0.008844539020991542	-0.3243532687806256	0.02278029029341938	-0.01422203553755497	0.1400914171682824	-31.6867650515449	-35.38978008968956	-9.015416404605791	-1.938037624462663	9.757655137681763	-677.4658254032972	50.17413216710624	0.06456738346075792	0.1710959190530959	-0.2417810868359546	-0.9205204021009915	-0.006687457977468685	-0.597773636462769	1.255011778196401	-1.398494446805445	-1.398494446805429	0.3052767054817714	-0.005151857521769897	-0.6671549903419236	-0.05992369630496541	-1.086820198368848e-07	-1.26384588156502e-07	7.214332900271536e-07	-1.034590854228993e-06	2.299185142928554e-10	-1.727611798786457e-07	9.081895122060058e-07
0.53	-0.09876405528301598	0.0630689353682435	0.8608971772390704	0.6914663903734276	-0.2338543433413779	-0.1252397996292426	-0.3265295858484261	0.7094507969845177	0.7094507969844784	0.04747716408838682	0.1745256136846093	0.2880738262842245	0.05863686948514354	-0.2454529242414471	-0.07111016632369675	-0.3077403527838479	1.293146021006689	-0.007918041468831854	0.2431173417462113	-0.5735724106846348	1.554414019831424	1.554414019831429	-0.2512300707016005	2.138264417257544e-05	0.5906757592264009	0.1603358389721144	-0.08597514823347181	0.001714860806221171	0.009327067740685351	-0.3270303128502343	0.01856264007425487	-0.01337751420603526	0.1447972502861352	-30.78973053215463	-36.87186325063741	-9.021709354021043	-1.80731375289807	10.23461822169744	-680.6564325295218	50.11656317219543	0.08431359958279129	0.1793360977989273	-0.1979170738680313	-1.041952601292985	-0.02731755437714077	-0.5885897658526286	1.305976314574463	-1.542845210323784	-1.542845210322784	0.3660694644867858	0.006268305864310788	-0.7230357087169172	-0.1065755228705186	-1.008328102080029e-07	-1.24343410472988e-07	6.230184515140291e-07	-1.016241873716433e-06	9.815296578804889e-09	-1.692904643669241e-07	8.366235721472956e-07
